<?xml version="1.0" standalone="no"?>
<!DOCTYPE svg PUBLIC "-//W3C//DTD SVG 20010904//EN"
 "http://www.w3.org/TR/2001/REC-SVG-20010904/DTD/svg10.dtd">
<svg version="1.0" xmlns="http://www.w3.org/2000/svg"
 width="590.000000pt" height="590.000000pt" viewBox="0 0 590.000000 590.000000"
 preserveAspectRatio="xMidYMid meet">
<metadata>
Created by potrace 1.14, written by Peter Selinger 2001-2017
</metadata>
<g transform="translate(0.000000,590.000000) scale(0.100000,-0.100000)"
fill="#000000" stroke="none">
<path d="M0 2950 l0 -2950 2950 0 2950 0 0 2950 0 2950 -2950 0 -2950 0 0
-2950z m732 2886 c32 0 58 2 58 5 0 4 45 7 100 7 l100 0 -6 -24 c-8 -30 -1
-30 96 -3 72 21 217 31 226 17 2 -4 -1 -10 -8 -15 -8 -5 5 -12 37 -19 39 -8
57 -8 82 3 20 8 34 9 38 3 3 -6 14 -10 23 -10 9 0 23 -4 31 -9 12 -8 13 -12 1
-26 -12 -14 -9 -15 26 -10 44 7 120 -6 118 -20 -1 -6 -11 -14 -23 -20 -15 -7
-19 -15 -15 -30 8 -25 48 -58 53 -43 2 6 -4 15 -13 20 -24 14 -19 30 18 61 42
33 79 35 100 5 16 -22 17 -22 20 5 1 8 26 12 88 12 48 0 90 4 94 8 4 3 17 4
30 1 16 -4 25 0 34 15 13 24 30 28 30 6 0 -8 8 -15 18 -16 9 0 41 -2 70 -5
l52 -5 0 30 c0 49 9 62 31 48 16 -10 21 -9 28 2 6 9 11 10 15 3 4 -6 13 -9 21
-6 10 4 13 -3 11 -30 -2 -20 -2 -36 0 -36 1 0 11 -3 21 -6 14 -5 15 -4 7 5
-14 15 -6 63 10 58 6 -2 10 -16 8 -31 l-4 -27 79 5 c52 4 96 1 132 -9 61 -16
152 -10 164 12 5 8 18 13 30 11 12 -1 27 1 33 5 7 4 26 2 43 -4 17 -6 38 -8
46 -5 10 4 15 -1 15 -14 0 -16 7 -20 32 -20 29 0 30 1 13 14 -11 8 -16 19 -12
30 5 13 0 16 -24 16 -18 0 -28 4 -24 10 3 6 31 10 61 10 40 0 54 -4 54 -14 0
-19 66 -70 79 -61 6 3 39 8 73 11 35 3 72 6 83 7 15 1 19 -3 17 -17 -2 -11 1
-16 10 -13 7 2 12 10 10 16 -1 7 14 11 38 11 30 0 40 -4 40 -16 0 -14 8 -16
53 -10 28 4 66 8 82 10 17 2 39 7 49 11 16 7 18 5 14 -12 -3 -12 -2 -27 3 -34
4 -7 3 -19 -3 -26 -15 -19 18 -29 38 -12 14 11 18 10 30 -6 13 -18 14 -17 14
11 0 17 -5 35 -10 40 -7 7 -8 19 -1 36 7 20 18 27 46 30 20 2 39 0 42 -5 3 -5
15 1 27 12 11 11 33 24 48 30 36 14 153 7 173 -9 14 -11 18 -11 25 -1 5 9 19
12 42 7 23 -4 45 -1 66 10 28 14 42 14 103 3 60 -11 72 -10 80 2 11 19 299 19
322 0 10 -8 17 -9 22 -2 3 6 21 8 41 5 21 -3 34 -1 34 5 0 6 22 11 51 11 51 0
51 0 44 -27 -3 -15 -7 -32 -8 -38 -1 -5 11 -11 27 -13 32 -4 76 30 76 60 0 14
6 18 28 16 15 -2 30 -7 34 -13 5 -6 8 -5 8 3 0 16 207 17 212 1 3 -9 10 -9 27
0 16 9 79 11 234 7 247 -5 316 -14 356 -44 17 -12 34 -22 39 -22 8 0 22 -3153
22 -4962 l0 -748 -701 0 c-385 0 -698 4 -695 9 3 4 -6 6 -19 3 -16 -3 -25 0
-25 8 0 9 -5 8 -18 -3 -16 -15 -20 -15 -40 -1 -19 13 -22 13 -22 0 0 -12 -30
-15 -192 -18 -106 -2 -208 1 -226 5 -20 5 -38 4 -46 -2 -18 -15 -72 -8 -67 10
17 63 19 109 10 172 -6 40 -10 145 -11 234 0 158 -1 163 -21 163 -35 0 -147
-22 -147 -29 0 -3 14 -71 30 -151 30 -143 30 -146 15 -227 -14 -74 -14 -86 0
-118 l15 -37 -65 7 c-43 5 -65 4 -65 -3 0 -6 6 -13 13 -16 6 -4 1 -4 -13 -1
-14 3 -36 8 -49 11 -14 3 -28 7 -33 10 -4 3 -8 0 -8 -5 0 -12 -58 -15 -84 -5
-9 3 -13 10 -10 15 3 5 -2 9 -11 9 -9 0 -13 -5 -10 -10 4 -6 -11 -11 -37 -11
-34 -2 -37 -3 -13 -6 52 -8 53 -23 1 -23 -53 0 -97 17 -76 30 8 5 3 9 -14 12
-26 5 -35 -5 -16 -17 22 -14 8 -26 -27 -23 -33 3 -38 7 -41 30 -2 14 -11 29
-20 33 -14 5 -15 4 -4 -6 6 -7 12 -23 12 -36 l0 -23 -482 0 c-471 0 -545 3
-516 21 8 6 -2 9 -29 9 -33 0 -43 -4 -43 -16 0 -14 -11 -15 -77 -10 -43 3 -86
5 -96 6 -24 0 -11 20 14 20 17 0 21 6 18 28 -1 4 -5 6 -10 4 -8 -2 -5 27 7 66
2 6 11 12 21 12 10 1 28 16 39 35 l22 33 -47 4 c-53 5 -71 1 -71 -17 0 -6 -9
-20 -21 -31 -12 -10 -30 -37 -42 -59 -11 -22 -27 -45 -36 -52 -9 -6 -13 -15
-9 -19 4 -4 3 -13 -4 -21 -9 -11 -142 -13 -789 -13 -721 1 -779 2 -789 18 -9
16 -9 16 -10 0 0 -14 -9 -17 -52 -14 l-53 2 -3 112 -3 112 29 0 c37 0 46 10
24 26 -9 7 -12 14 -7 14 13 0 17 69 5 91 -7 13 -4 21 13 32 21 13 23 22 22 79
-1 34 -5 76 -10 91 -5 20 -3 33 10 47 9 10 14 23 11 28 -3 4 2 21 10 37 12 23
12 35 3 64 -6 20 -18 43 -25 51 -7 9 -11 26 -7 39 4 15 -2 32 -16 51 -24 33
-27 55 -9 67 9 5 3 9 -16 13 -34 6 -37 23 -6 28 11 2 20 8 20 13 0 6 7 3 16
-5 18 -18 34 -21 34 -6 0 6 11 8 26 4 19 -5 25 -4 20 5 -4 6 -16 11 -26 11
-10 0 -22 5 -26 11 -3 6 -19 9 -34 5 -31 -6 -44 2 -31 18 13 16 1 66 -15 66
-21 0 -17 21 6 27 20 5 24 33 7 60 -4 7 -5 22 -2 35 3 13 -1 41 -9 63 -13 37
-13 41 7 63 11 12 22 38 23 58 2 19 12 50 24 68 l20 34 -22 14 c-19 13 -23 24
-21 63 1 39 7 52 28 69 l27 22 -18 37 c-18 38 -47 49 -58 22 -3 -8 -10 -15
-16 -15 -14 0 -14 3644 0 3670 7 13 7 21 0 25 -6 4 -10 69 -10 164 l0 158 28
0 c15 0 46 3 70 8 37 7 42 6 36 -9 -8 -20 9 -21 26 -1 7 8 16 15 21 15 14 0
11 -28 -3 -33 -9 -4 -8 -6 2 -6 8 -1 21 8 28 20 11 18 21 20 73 17 40 -2 60 1
64 10 5 13 35 17 35 4 0 -5 33 -8 73 -8 56 1 71 4 69 15 -2 11 7 12 50 6 29
-4 79 -8 110 -9z m-652 -5355 c0 -6 -4 -13 -10 -16 -5 -3 -10 1 -10 9 0 9 5
16 10 16 6 0 10 -4 10 -9z m1726 -358 c-3 -3 -1 -13 4 -23 8 -14 5 -16 -15
-12 -28 5 -33 20 -10 28 8 4 12 11 8 17 -4 6 -1 7 6 3 7 -5 10 -10 7 -13z m54
2 c7 -9 9 -19 5 -23 -4 -4 -10 -1 -12 6 -3 6 -9 10 -14 6 -5 -3 -9 2 -9 10 0
20 14 20 30 1z"/>
<path d="M5630 5811 c0 -5 5 -13 10 -16 6 -3 10 -2 10 4 0 5 -4 13 -10 16 -5
3 -10 2 -10 -4z"/>
<path d="M2251 5784 c-6 -15 -9 -29 -6 -32 3 -3 5 0 5 6 0 7 6 12 14 12 7 0
16 9 19 20 8 30 -18 25 -32 -6z"/>
<path d="M161 5784 c0 -11 3 -14 6 -6 3 7 2 16 -1 19 -3 4 -6 -2 -5 -13z"/>
<path d="M103 5583 c-7 -2 -13 -9 -13 -14 0 -6 4 -8 9 -5 12 8 41 -3 41 -15 0
-5 -9 -9 -20 -9 -17 0 -19 -4 -14 -26 4 -16 2 -29 -5 -33 -8 -5 -7 -12 3 -26
12 -17 18 -18 70 -6 44 10 56 16 52 28 -3 8 -6 19 -6 24 0 5 -6 9 -12 9 -7 0
-23 18 -36 40 -21 38 -38 46 -69 33z"/>
<path d="M2320 4890 l0 -70 -115 0 -115 0 0 -315 0 -315 79 0 c73 0 80 -2 87
-22 3 -12 20 -43 35 -69 l29 -46 0 -230 c0 -132 4 -233 10 -239 5 -5 10 -47
12 -94 3 -80 4 -85 26 -88 15 -2 22 -9 18 -17 -6 -17 27 -29 134 -49 67 -12
90 -21 107 -41 12 -14 29 -25 38 -25 9 0 14 -4 11 -9 -3 -4 7 -8 22 -8 15 0
47 -6 71 -12 24 -7 63 -9 88 -5 36 5 43 4 43 -10 0 -9 -4 -16 -10 -16 -25 0
-6 -19 38 -38 l47 -21 3 460 c1 305 6 459 12 459 7 0 7 6 0 19 -6 12 -10 109
-10 245 l0 225 -120 120 c-65 66 -130 123 -142 127 -13 4 -76 7 -140 5 -64 -1
-135 3 -158 9 -45 12 -43 6 -24 113 5 26 4 27 -35 27 l-41 0 0 -70z"/>
<path d="M4530 4853 c-300 -19 -547 -36 -549 -38 -3 -4 19 -608 22 -612 1 -1
45 -6 98 -12 53 -6 115 -18 139 -26 36 -13 41 -13 30 0 -24 29 -1 37 103 31
57 -3 103 -10 105 -16 5 -15 58 -12 76 5 21 21 28 19 51 -18 l21 -32 87 4 c75
3 87 1 87 -13 0 -20 26 -21 34 -1 7 20 24 19 29 -2 4 -15 5 -15 6 -2 1 15 36
17 144 5 15 -1 27 -1 27 0 0 2 -4 14 -9 27 -13 34 -5 39 36 22 68 -28 73 -24
73 58 0 52 -26 632 -30 655 0 1 -8 1 -17 1 -10 -1 -263 -17 -563 -36z"/>
<path d="M3188 4824 l-3 -49 -43 -3 -44 -3 6 -122 c11 -200 126 -3368 126
-3457 0 -45 5 -90 10 -100 11 -21 249 -155 295 -165 17 -4 40 -14 52 -21 19
-12 38 -12 113 -2 99 13 91 4 105 108 4 25 16 65 28 89 20 44 20 45 6 425 -8
210 -15 469 -15 576 -1 107 -2 197 -3 200 -7 20 -28 577 -24 625 2 22 3 45 3
50 -1 15 -1 387 0 410 2 43 -4 101 -11 110 -4 6 -4 17 1 25 15 23 12 70 -4 70
-19 0 -22 58 -43 688 -9 293 -19 536 -22 541 -4 4 -109 -2 -236 -15 -307 -31
-281 -33 -283 18 -3 58 -10 59 -14 2z"/>
<path d="M1180 4806 c-64 -11 -68 -13 -139 -88 -40 -43 -95 -94 -122 -115
l-49 -37 0 -296 0 -296 30 -22 c19 -15 30 -31 30 -48 0 -14 7 -27 18 -31 9 -4
21 -12 25 -20 4 -7 15 -13 22 -13 8 0 15 -6 15 -12 0 -7 21 -21 45 -32 25 -10
44 -23 42 -29 -6 -19 64 -76 102 -83 20 -3 41 -7 46 -8 6 -2 15 4 21 13 10 13
14 13 28 2 9 -8 33 -15 54 -16 20 -1 55 -6 76 -10 31 -6 37 -5 31 5 -6 10 -1
12 23 7 l32 -6 0 258 0 258 65 1 c36 1 65 -3 65 -9 0 -5 9 -4 21 3 17 11 22
10 33 -4 16 -22 27 -23 20 -3 -5 12 4 15 50 15 l56 0 0 315 0 315 -287 -1
c-163 -1 -316 -6 -353 -13z"/>
<path d="M4410 4155 c0 -5 5 -17 10 -25 5 -8 10 -10 10 -5 0 6 -5 17 -10 25
-5 8 -10 11 -10 5z"/>
<path d="M878 2553 l4 -1194 121 -119 122 -119 353 -1 352 0 0 315 0 315 -119
0 -120 0 9 32 c6 20 6 36 -1 44 -5 7 -7 30 -3 53 4 22 4 41 1 41 -3 0 -16 -20
-28 -45 -14 -29 -29 -45 -41 -45 -15 0 -18 9 -18 60 0 55 2 60 23 61 16 1 18
2 5 6 -22 5 -24 23 -4 23 8 0 18 5 21 11 11 16 -4 59 -20 59 -17 0 -19 12 -5
26 8 8 6 15 -5 24 -15 13 -21 50 -7 50 4 0 15 7 25 14 17 13 17 17 -8 76 -17
41 -23 66 -17 72 7 7 16 -1 28 -23 23 -46 64 -99 76 -99 5 0 -12 30 -39 68
-45 62 -48 71 -47 125 1 53 -8 73 -19 45 -3 -7 -6 76 -6 186 -1 173 1 197 14
186 8 -6 20 -10 27 -7 8 2 1 10 -16 18 -26 12 -28 16 -21 54 4 22 9 55 12 73
4 22 11 32 23 32 13 0 21 13 29 44 14 55 14 54 -1 53 -7 0 -25 1 -40 1 l-28 2
0 229 0 229 -57 19 c-32 11 -164 55 -293 98 -129 43 -246 83 -260 90 l-25 13
3 -1195z"/>
<path d="M4505 3324 c-203 -12 -392 -23 -420 -23 l-50 -1 13 -312 c7 -172 14
-314 16 -315 3 -4 870 48 874 52 2 1 -2 143 -9 314 -13 304 -13 311 -33 310
-12 -1 -187 -12 -391 -25z"/>
<path d="M2340 2488 l0 -738 -125 0 -125 0 0 -314 0 -313 328 -5 c180 -3 332
-4 337 -1 6 2 19 16 30 32 11 15 48 54 83 86 l63 58 67 -2 c77 -1 108 11 80
33 -10 7 -18 21 -18 30 0 21 -10 20 -25 -1 -7 -9 -17 -13 -25 -8 -10 6 -9 9 1
16 10 6 8 9 -8 9 -23 0 -23 0 -23 179 0 134 3 181 13 184 10 4 10 6 0 6 -10 1
-13 95 -13 436 l0 435 24 -6 c23 -5 24 -4 30 73 12 142 8 294 -8 305 -18 13
-26 9 -26 -12 0 -33 -17 -22 -24 15 -4 20 -11 33 -15 30 -5 -2 -58 14 -117 36
-60 23 -198 71 -306 108 l-198 68 0 -739z"/>
<path d="M2905 3065 c11 -9 29 -21 40 -26 l20 -10 -20 16 c-11 9 -29 21 -40
26 l-20 10 20 -16z"/>
<path d="M3140 150 c0 -5 5 -10 10 -10 6 0 10 5 10 10 0 6 -4 10 -10 10 -5 0
-10 -4 -10 -10z"/>
<path d="M2768 125 c2 -14 8 -22 13 -20 4 3 6 12 3 19 -3 9 5 13 27 14 49 1
47 12 -3 12 -43 0 -45 -1 -40 -25z"/>
<path d="M3415 130 c3 -5 8 -10 11 -10 2 0 4 5 4 10 0 6 -5 10 -11 10 -5 0 -7
-4 -4 -10z"/>
<path d="M2928 118 c16 -16 112 -24 112 -9 0 7 -9 9 -24 5 -13 -3 -41 -1 -61
5 -28 7 -35 7 -27 -1z"/>
<path d="M2805 110 c-3 -5 1 -10 10 -10 9 0 13 5 10 10 -3 6 -8 10 -10 10 -2
0 -7 -4 -10 -10z"/>
</g>
</svg>
